<svg xmlns="http://www.w3.org/2000/svg" viewBox="0 0 50 50">
  <g>
    <path d="M0 0h50v50H0z" style="fill:#ff9f1c"/>
    <path d="m1.3 36.6 4.28-2.63c1.19 2.14 2.58 3.63 5.07 3.63 2.83 0 4.67-1.34 4.67-5.27V8.07h5.28v24.36c0 6.72-4.03 9.9-9.7 9.9a10.12 10.12 0 0 1-9.6-5.72Zm24.23-1.28 4.32-2.4c1.6 2.64 3.63 4.73 7.76 4.73 3.43 0 5.87-1.84 5.87-4.62 0-2.94-2-4.23-5.67-5.87l-2.24-1c-4.92-2.18-7.9-4.67-7.9-9.9 0-5.01 3.88-8.6 9.5-8.6 4.47 0 7.5 1.7 9.54 5.33l-4.13 2.54c-1.29-2.24-2.78-3.29-5.41-3.29-2.69 0-4.38 1.64-4.38 3.93 0 2.54 1.44 3.68 4.88 5.17l2.18 1c5.77 2.53 8.85 5.22 8.85 10.64 0 5.91-4.62 9.35-10.98 9.35-6.42 0-10.3-3.18-12.19-7.01Z"/>
  </g>
</svg>
