<?xml version="1.0" standalone="no"?>
<!DOCTYPE svg PUBLIC "-//W3C//DTD SVG 20010904//EN"
 "http://www.w3.org/TR/2001/REC-SVG-20010904/DTD/svg10.dtd">
<svg version="1.0" xmlns="http://www.w3.org/2000/svg"
 width="3405.000000pt" height="3405.000000pt" viewBox="0 0 3405.000000 3405.000000"
 preserveAspectRatio="xMidYMid meet">
<metadata>
Created by potrace 1.14, written by Peter Selinger 2001-2017
</metadata>
<g transform="translate(0.000000,3405.000000) scale(0.100000,-0.100000)"
fill="#000000" stroke="none">
<path d="M16440 33785 c0 -129 -1 -236 -2 -237 -2 -2 -606 -5 -1343 -8 l-1340
-5 -5 -240 -5 -240 -252 -3 -253 -2 0 -219 c0 -121 -3 -226 -6 -235 -5 -14
-59 -16 -505 -16 l-499 0 -1 -32 c-1 -18 -1 -125 0 -237 1 -156 -2 -207 -11
-213 -7 -4 -501 -8 -1098 -8 l-1085 0 0 -320 c0 -277 -2 -321 -15 -324 -8 -3
-874 -4 -1923 -4 -1050 0 -1911 -3 -1914 -6 -3 -3 -6 -110 -7 -238 l-1 -233
-252 -3 -253 -2 -2 -243 -3 -242 -500 -2 c-275 -1 -502 -2 -505 -2 -3 -1 -5
-215 -4 -476 0 -360 -3 -478 -12 -486 -7 -6 -101 -9 -248 -7 l-236 3 0 -316 0
-316 -31 -7 c-17 -3 -170 -6 -340 -6 l-309 0 0 -222 c0 -123 -3 -233 -6 -245
l-6 -23 -244 0 -244 0 -2 -477 -3 -478 -252 -3 -253 -2 0 -549 c0 -302 -3
-556 -6 -565 -5 -14 -37 -16 -255 -16 l-249 0 0 -1515 0 -1515 78 0 c42 -1
156 -2 252 -3 l175 -2 3 -720 c1 -396 0 -730 -3 -742 l-5 -23 -250 0 -250 0 0
-3390 0 -3390 -245 0 -245 0 0 -790 0 -790 245 0 245 0 0 -240 0 -240 249 0
c218 0 250 -2 255 -16 3 -9 6 -119 6 -245 l0 -229 255 0 254 0 1 -482 c0 -264
2 -483 4 -485 2 -2 114 -4 248 -4 l245 0 0 -813 0 -813 -231 -1 c-127 0 -239
-1 -249 -1 -16 -1 -17 -44 -15 -798 l3 -796 242 1 243 0 0 -244 0 -244 83 0
c45 -1 199 -2 342 -3 l260 -2 0 -240 0 -240 230 2 c127 1 240 -1 252 -4 21 -5
21 -6 19 -244 l-2 -239 253 0 253 0 0 -242 0 -243 250 2 c194 2 250 0 251 -10
0 -6 1 -258 1 -559 l1 -548 236 0 c130 0 246 -3 257 -6 22 -6 22 -8 20 -247
l-1 -242 330 0 330 0 1 -232 c0 -128 3 -236 7 -239 3 -3 118 -7 254 -8 l248
-1 3 -242 2 -243 38 -1 c20 0 247 0 503 -1 l466 0 -1 -324 -1 -324 130 -1 c72
0 187 0 256 1 l126 1 1 -473 c0 -260 1 -482 1 -493 1 -17 7 -20 48 -18 27 2
175 4 330 6 l282 3 -2 -241 -2 -240 235 2 c129 1 244 0 256 -2 20 -4 21 -9 21
-240 0 -129 2 -238 6 -241 3 -3 231 -6 506 -6 l501 0 0 -314 c0 -244 3 -314
13 -315 6 0 266 0 577 -1 310 0 570 -2 577 -5 9 -4 12 -51 12 -196 -1 -306 -4
-277 34 -277 19 0 37 -3 41 -7 4 -5 1308 -8 2896 -8 l2889 0 6 25 c4 14 6 108
5 210 -1 102 -1 201 -1 221 l1 37 1081 0 c594 0 1083 2 1086 5 3 3 5 145 5
314 l0 308 254 -3 254 -4 1 184 c1 101 1 205 0 232 -3 89 -20 83 237 84 125 1
238 1 252 1 l25 1 0 237 0 236 236 -2 c180 -2 239 1 245 10 4 7 7 115 7 240
-1 162 2 231 10 237 7 6 251 10 577 10 311 0 571 1 578 1 9 1 12 54 12 230 0
126 3 236 6 245 5 14 37 16 255 16 l249 0 0 113 c1 61 0 203 0 314 l-1 201 38
6 c21 3 230 5 465 5 235 -1 440 2 456 6 40 8 42 25 45 275 l2 205 248 2 c137
1 252 4 255 8 4 3 7 111 7 238 l0 232 30 -2 c37 -3 439 -1 554 2 57 2 86 7 92
17 5 7 9 118 9 246 l0 232 245 0 245 0 1 108 c0 59 0 166 0 237 l0 130 251 0
251 0 0 317 c1 280 3 318 16 322 9 3 117 5 241 5 124 0 233 0 243 0 17 1 18
15 15 239 l-3 237 248 -3 247 -3 0 488 0 488 337 -3 338 -3 -3 251 -3 250 253
0 c139 0 263 -3 276 -6 l22 -6 0 -239 0 -239 740 0 740 0 0 548 c0 301 3 557
6 570 l6 22 329 0 329 0 0 224 c0 123 3 231 6 240 5 14 37 16 248 16 l241 0
-3 711 c-2 522 1 715 9 725 9 11 60 14 255 14 l244 0 0 1035 0 1035 -252 2
-253 3 0 575 0 575 252 3 253 2 2 478 3 477 253 3 c231 2 252 4 254 20 0 9 2
1532 3 3385 l1 3367 -245 0 -246 0 0 263 c0 144 4 268 9 276 6 9 5 12 -1 8 -6
-4 -9 31 -9 93 1 57 5 96 10 93 5 -4 6 0 0 8 -11 17 -12 969 -1 976 4 3 4 10
-1 16 -10 15 -10 1667 1 1684 4 6 4 14 -1 17 -4 2 -7 58 -7 123 1 65 -2 126
-7 135 -8 16 -31 17 -250 18 -135 0 -244 4 -247 9 -8 13 -6 95 3 109 4 7 3 12
-1 12 -5 0 -8 16 -8 35 0 19 5 35 10 35 6 0 6 3 0 8 -14 9 -13 65 0 74 7 5 6
8 0 8 -6 0 -11 9 -12 20 -1 12 3 18 9 14 6 -4 6 1 -1 14 -8 14 -8 23 -1 27 8
5 7 11 -1 21 -9 11 -8 14 2 14 9 0 10 3 4 8 -12 8 -13 27 -3 38 4 4 3 13 -2
20 -12 13 -10 36 4 45 5 4 5 13 0 20 -12 20 -12 49 0 49 6 0 5 4 -2 9 -14 9
-13 32 3 44 6 4 5 10 -3 16 -15 9 -15 20 -1 37 5 6 6 14 2 18 -4 4 -8 21 -8
39 -4 74 22 67 -250 67 l-245 0 -2 320 -3 321 -335 2 -335 2 -3 722 -2 723
-252 2 -252 3 0 232 c-1 127 -4 234 -8 238 -4 4 -118 7 -253 7 l-245 0 0 317
0 316 -247 -1 c-171 -1 -250 2 -258 10 -6 7 -10 91 -11 228 0 120 -4 221 -8
225 -4 5 -113 9 -242 9 -128 1 -240 4 -249 7 -12 5 -15 43 -17 239 l-3 233
-40 8 c-22 5 -278 10 -570 11 -291 2 -536 4 -542 5 -10 1 -13 56 -13 241 l0
240 -47 1 c-27 0 -141 0 -255 -1 l-208 -1 0 241 0 240 -234 0 c-129 0 -241 3
-250 6 -14 5 -16 43 -16 325 l0 319 -37 0 c-21 0 -280 0 -575 0 -296 0 -544 3
-553 6 -12 5 -14 26 -8 138 3 72 2 179 -2 239 l-7 107 -1004 0 -1004 0 0 238
0 237 -1344 -2 -1344 -2 -7 57 c-4 31 -6 140 -4 242 l4 185 -837 3 -838 2 0
240 0 240 -1080 0 -1080 0 0 -235z"/>
</g>
</svg>
